Coordinates
version=1
nRows=49
nColumns=12
inDegrees=yes

Units are S.I. units (second, meters, Newtons, ...)
Angles are in degrees

endheader
time	SC_y	SC_z	SC_x	AC_y	AC_z	AC_x	GH_y	GH_z	GH_yy	EL_x	PS_y
       0.0              -54.55          35.04          63.12          56.86         -19.35          12.06           34.9          9.067         -147.6          92.48          55.32
    0.0044              -54.54          35.04          63.11          56.86         -19.35          12.06          34.87          9.074         -147.5          92.49          55.32
    0.0088              -54.54          35.04           63.1          56.86         -19.34          12.05          34.84           9.08         -147.5          92.49          55.31
    0.0132              -54.53          35.04           63.1          56.87         -19.34          12.05          34.82          9.087         -147.5          92.49          55.31
    0.0176              -54.53          35.04          63.09          56.87         -19.34          12.05          34.78          9.095         -147.5          92.49          55.31
     0.022              -54.52          35.04          63.08          56.87         -19.34          12.04          34.75          9.103         -147.5           92.5          55.31
    0.0264              -54.52          35.04          63.07          56.87         -19.33          12.04          34.72          9.111         -147.4           92.5          55.31
    0.0308              -54.51          35.04          63.06          56.87         -19.33          12.04          34.68           9.12         -147.4           92.5          55.31
    0.0352               -54.5          35.04          63.05          56.87         -19.33          12.03          34.64           9.13         -147.4          92.51           55.3
    0.0396               -54.5          35.04          63.04          56.88         -19.32          12.03          34.59           9.14         -147.3          92.51           55.3
     0.044              -54.49          35.04          63.03          56.88         -19.32          12.02          34.55          9.152         -147.3          92.52           55.3
    0.0484              -54.48          35.04          63.02          56.88         -19.32          12.02           34.5          9.164         -147.3          92.52           55.3
    0.0528              -54.47          35.04           63.0          56.88         -19.31          12.01          34.44          9.177         -147.2          92.53           55.3
    0.0572              -54.46          35.04          62.99          56.89         -19.31          12.01          34.38          9.191         -147.2          92.53          55.29
    0.0616              -54.45          35.04          62.97          56.89          -19.3           12.0          34.32          9.206         -147.1          92.54          55.29
     0.066              -54.44          35.04          62.95          56.89         -19.29          11.99          34.25          9.222         -147.1          92.54          55.29
    0.0704              -54.43          35.05          62.93           56.9         -19.29          11.98          34.18           9.24         -147.0          92.55          55.28
    0.0748              -54.41          35.05          62.91           56.9         -19.28          11.97           34.1           9.26         -147.0          92.56          55.28
    0.0792               -54.4          35.05          62.89          56.91         -19.27          11.96          34.01          9.281         -146.9          92.57          55.27
    0.0836              -54.38          35.05          62.87          56.91         -19.27          11.95          33.91          9.304         -146.8          92.57          55.27
     0.088              -54.37          35.05          62.84          56.92         -19.26          11.94           33.8           9.33         -146.8          92.58          55.26
    0.0924              -54.35          35.05          62.81          56.92         -19.25          11.93          33.68          9.358         -146.7           92.6          55.26
    0.0968              -54.32          35.05          62.78          56.93         -19.24          11.92          33.55          9.389         -146.6          92.61          55.25
    0.1012               -54.3          35.06          62.74          56.94         -19.22           11.9          33.41          9.424         -146.5          92.62          55.25
    0.1056              -54.27          35.06           62.7          56.94         -19.21          11.88          33.25          9.462         -146.4          92.64          55.24
      0.11              -54.24          35.06          62.66          56.95          -19.2          11.86          33.07          9.505         -146.2          92.65          55.23
    0.1144              -54.21          35.06          62.61          56.96         -19.18          11.84          32.87          9.553         -146.1          92.67          55.22
    0.1188              -54.17          35.07          62.55          56.97         -19.16          11.82          32.65          9.607         -145.9          92.69          55.21
    0.1232              -54.13          35.07          62.49          56.99         -19.14          11.79          32.39          9.668         -145.7          92.72           55.2
    0.1276              -54.09          35.07          62.41           57.0         -19.11          11.76           32.1          9.737         -145.5          92.74          55.18
     0.132              -54.03          35.08          62.33          57.02         -19.09          11.72          31.77          9.816         -145.3          92.77          55.17
    0.1364              -53.97          35.08          62.23          57.04         -19.05          11.68           31.4          9.906         -145.0          92.81          55.15
    0.1408               -53.9          35.09          62.12          57.06         -19.02          11.64          30.96          10.01         -144.7          92.85          55.13
    0.1452              -53.81          35.09           62.0          57.08         -18.97          11.58          30.45          10.13         -144.3          92.89           55.1
    0.1496              -53.71           35.1          61.85          57.11         -18.92          11.52          29.86          10.27         -143.9          92.95          55.08
     0.154               -53.6          35.11          61.67          57.15         -18.87          11.44          29.16          10.44         -143.4          93.01          55.04
    0.1584              -53.46          35.12          61.46          57.19         -18.79          11.35          28.33          10.64         -142.8          93.09           55.0
    0.1628               -53.3          35.13          61.21          57.24         -18.71          11.24          27.33          10.88         -142.0          93.18          54.95
    0.1672               -53.1          35.15           60.9           57.3         -18.61          11.11          26.12          11.17         -141.1           93.3           54.9
    0.1716              -52.85          35.17          60.53          57.37         -18.48          10.96          24.65          11.52         -140.1          93.43          54.83
     0.176              -52.55          35.19          60.07          57.46         -18.33          10.76          22.83          11.96         -138.7           93.6          54.74
    0.1804              -52.18          35.22           59.5          57.57         -18.14          10.51          20.56           12.5         -137.1          93.81          54.63
    0.1848              -51.71          35.26          58.78          57.72          -17.9          10.21          17.71          13.18         -135.0          94.07          54.49
    0.1892              -51.11          35.31          57.87           57.9         -17.59          9.815          14.08          14.05         -132.3          94.41          54.32
    0.1936              -50.34          35.37           56.7          58.13          -17.2          9.314          9.428          15.17         -129.0          94.84           54.1
     0.198              -49.36          35.45          55.19          58.42          -16.7          8.671          3.463           16.6         -124.6          95.39          53.81
    0.2024               -48.1          35.55          53.27           58.8         -16.05           7.85         -4.156          18.42         -119.0           96.1          53.45
    0.2068              -46.52          35.67          50.86          59.28         -15.25          6.817         -13.74          20.71         -112.0          96.98          52.99
    0.2112              -44.59          35.82          47.91          59.86         -14.26          5.558         -25.41          23.51         -103.5          98.06          52.43
